<svg width="791" height="755" viewBox="0 0 791 755" fill="none" xmlns="http://www.w3.org/2000/svg">
<path d="M606.5 622.5L725.5 755H-0.5V527.5L606.5 622.5Z" fill="white"/>
<path d="M196.5 5.00001C221 7 226.632 15.2133 235.5 33.5C242.3 57.9 254 46.6667 259 38C264.954 10.442 276.5 5.00001 297 5.00001C317.5 5.00001 324.072 26.0278 328.5 51C519.275 120.839 574.81 217.857 656 411L620.5 565.5C614.104 667.708 567.271 693.396 426 697C209.867 678.991 111.523 646.251 -1 525.5V333.5C0.6 331.1 13.8598 320.833 20.2896 316C34.3996 232.526 59.0718 178.98 115.5 112.5C115.5 112.5 108.867 92.2623 128.5 56C148.133 19.7378 172 3.00002 196.5 5.00001Z" fill="#55AB00"/>
<path d="M11 390C13.5674 362.584 16.5374 338.198 20.2896 316M20.2896 316C34.3996 232.526 59.0718 178.98 115.5 112.5C115.5 112.5 108.867 92.2623 128.5 56C148.133 19.7378 172 3.00002 196.5 5.00001C221 7 226.632 15.2133 235.5 33.5C242.3 57.9 254 46.6667 259 38C264.954 10.442 276.5 5.00001 297 5.00001C317.5 5.00001 324.072 26.0278 328.5 51C519.275 120.839 574.81 217.857 656 411L620.5 565.5C614.104 667.708 567.272 693.396 426 697C209.867 678.991 111.523 646.251 -1 525.5V333.5C0.6 331.1 13.8598 320.833 20.2896 316Z" stroke="black" stroke-width="9" stroke-linecap="round" stroke-linejoin="round"/>
<path d="M595 490C631.123 470.956 655.475 445.232 654.5 409C669.565 409.991 678 414.5 675 433.5C670.298 457.204 663 467 644 487C652.5 514 653.981 537.52 615 564.5C577.463 584.257 518.943 586.883 365.5 580.5C258.238 566.597 199.912 538.212 98 463.5C91.8249 436.538 100.209 431.809 125 432C357.638 513.255 558.877 509.044 595 490Z" fill="#AD4100"/>
<path d="M644 487C652.5 514 653.981 537.52 615 564.5C577.463 584.257 518.943 586.883 365.5 580.5C258.238 566.597 199.912 538.212 98 463.5C91.8249 436.538 100.209 431.809 125 432C357.638 513.255 558.877 509.044 595 490C631.123 470.956 655.475 445.232 654.5 409C669.565 409.991 678 414.5 675 433.5C670.298 457.204 663 467 644 487ZM644 487C621.602 508.371 610 518.99 578.5 525.5C503.5 541 294 535.5 137 458.5" stroke="black" stroke-width="9" stroke-linecap="round" stroke-linejoin="round"/>
<path d="M78 438.024C86.1667 428.024 109.2 408.224 136 409.024" stroke="black" stroke-width="9" stroke-linecap="round"/>
<path d="M68.5 412C71.6667 407 79.9 396.5 87.5 394.5" stroke="black" stroke-width="9" stroke-linecap="round"/>
<path d="M746.466 155.487C691.885 112.663 625.794 91.3686 324 52.5L635 337.5C677.202 327.357 709.515 316.669 742.752 297.183C753.709 290.759 763.286 282.088 770.328 271.518C785.968 248.041 790.475 228.803 781.817 202.542C775.562 183.571 762.181 167.818 746.466 155.487Z" fill="white" stroke="black" stroke-width="9"/>
<path d="M178 427C64.5 246.5 174 81 190 45.5C206 10 566.5 104 644.5 148.5C722.5 193 701 302 644.5 333C588 364 242.5 458.5 178 427Z" fill="white" stroke="black" stroke-width="9"/>
<path d="M767 175C753.667 194.333 732.8 243.3 756 284.5C774.167 271.833 801.8 232.2 767 175Z" fill="black"/>
<path d="M675 174C658.667 191.833 635.8 241.8 675 299C688.833 275.5 708.2 217.6 675 174Z" fill="black"/>
<path fill-rule="evenodd" clip-rule="evenodd" d="M306 682C251.408 693.529 236.068 713.023 249 755H350H405.5H582H747C718.5 712 677.5 656.5 612 619.5C612 619.5 609.5 624 605 627C605.246 659.167 599.515 725.3 584.619 736.5C586.825 710.995 580.913 692.183 552.5 686C507.969 679.754 483.335 680.925 440 691.5C423.365 680.12 413.201 679.282 393 691.5C356.359 678.484 337.659 677.623 306 682ZM225.5 755C177.173 717.592 118.031 687.82 -1 631V755H225.5Z" fill="black"/>
</svg>
